<svg xmlns="http://www.w3.org/2000/svg" xmlns:xlink="http://www.w3.org/1999/xlink" width="500" zoomAndPan="magnify" viewBox="0 0 375 374.999991" height="500" preserveAspectRatio="xMidYMid meet" version="1.0"><defs><clipPath id="ba079c2bc6"><path d="M 303 119.742188 L 311 119.742188 L 311 145 L 303 145 Z M 303 119.742188 " clip-rule="nonzero"/></clipPath><clipPath id="7c1200f9b3"><path d="M 320.808594 157.449219 L 345.75 157.449219 L 345.75 164.355469 L 320.808594 164.355469 Z M 320.808594 157.449219 " clip-rule="nonzero"/></clipPath><clipPath id="4a3f565b4a"><path d="M 37.5 150 L 136 150 L 136 249 L 37.5 249 Z M 37.5 150 " clip-rule="nonzero"/></clipPath><clipPath id="ecfc35afa2"><path d="M 104.925781 146.894531 L 311.421875 146.894531 L 311.421875 251.640625 L 104.925781 251.640625 Z M 104.925781 146.894531 " clip-rule="nonzero"/></clipPath></defs><g clip-path="url(#ba079c2bc6)"><path fill="#602e9e" d="M 306.753906 144.640625 C 304.914062 144.640625 303.421875 143.148438 303.421875 141.304688 L 303.421875 123.175781 C 303.421875 121.335938 304.914062 119.839844 306.753906 119.839844 C 308.59375 119.839844 310.085938 121.335938 310.085938 123.175781 L 310.085938 141.304688 C 310.085938 143.148438 308.59375 144.640625 306.753906 144.640625 " fill-opacity="1" fill-rule="nonzero"/></g><g clip-path="url(#7c1200f9b3)"><path fill="#602e9e" d="M 342.425781 164.261719 L 324.328125 164.261719 C 322.488281 164.261719 320.996094 162.769531 320.996094 160.925781 C 320.996094 159.082031 322.488281 157.585938 324.328125 157.585938 L 342.425781 157.585938 C 344.265625 157.585938 345.753906 159.082031 345.753906 160.925781 C 345.753906 162.769531 344.265625 164.261719 342.425781 164.261719 " fill-opacity="1" fill-rule="nonzero"/></g><path fill="#602e9e" d="M 322.996094 147.699219 C 322.144531 147.699219 321.289062 147.371094 320.640625 146.71875 C 319.339844 145.417969 319.339844 143.304688 320.640625 142 L 331.484375 131.136719 C 332.785156 129.835938 334.894531 129.835938 336.195312 131.136719 C 337.496094 132.441406 337.496094 134.554688 336.195312 135.855469 L 325.351562 146.71875 C 324.699219 147.371094 323.847656 147.699219 322.996094 147.699219 " fill-opacity="1" fill-rule="nonzero"/><g clip-path="url(#4a3f565b4a)"><path fill="#602e9e" d="M 135.152344 199.289062 C 135.152344 172.324219 113.246094 150.382812 86.324219 150.382812 C 59.402344 150.382812 37.5 172.324219 37.5 199.289062 C 37.5 226.257812 59.402344 248.199219 86.324219 248.199219 C 113.246094 248.199219 135.152344 226.257812 135.152344 199.289062 " fill-opacity="1" fill-rule="nonzero"/></g><g clip-path="url(#ecfc35afa2)"><path fill="#602e9e" d="M 258.980469 146.941406 L 104.960938 146.941406 C 126.417969 154.628906 141.816406 175.191406 141.816406 199.289062 C 141.816406 223.394531 126.417969 243.953125 104.960938 251.640625 L 258.980469 251.640625 C 287.84375 251.640625 311.242188 228.203125 311.242188 199.292969 C 311.242188 170.378906 287.84375 146.941406 258.980469 146.941406 " fill-opacity="1" fill-rule="nonzero"/></g><path fill="#ffffff" d="M 177.207031 189.835938 C 179.96875 189.835938 181.394531 187.960938 181.394531 184.570312 L 181.394531 173.414062 C 181.394531 170.019531 179.96875 168.148438 177.207031 168.148438 C 174.441406 168.148438 173.015625 170.019531 173.015625 173.414062 L 173.015625 184.570312 C 173.015625 187.960938 174.441406 189.835938 177.207031 189.835938 Z M 187.097656 184.570312 C 187.097656 187.828125 186.203125 190.417969 184.554688 192.246094 L 187.007812 195.191406 L 183.796875 198.003906 L 180.992188 194.566406 C 179.832031 194.96875 178.585938 195.148438 177.207031 195.148438 C 171.011719 195.148438 167.359375 191.175781 167.359375 184.570312 L 167.359375 173.414062 C 167.359375 166.808594 171.011719 162.835938 177.207031 162.835938 C 183.398438 162.835938 187.097656 166.808594 187.097656 173.414062 L 187.097656 184.570312 " fill-opacity="1" fill-rule="nonzero"/><path fill="#ffffff" d="M 191.6875 184.75 L 191.6875 163.371094 L 197.347656 163.371094 L 197.347656 184.75 C 197.347656 188.097656 198.773438 189.792969 201.265625 189.792969 C 203.761719 189.792969 205.1875 188.097656 205.1875 184.75 L 205.1875 163.371094 L 210.890625 163.371094 L 210.890625 184.75 C 210.890625 191.308594 207.238281 195.101562 201.265625 195.101562 C 195.34375 195.101562 191.6875 191.308594 191.6875 184.75 " fill-opacity="1" fill-rule="nonzero"/><path fill="#ffffff" d="M 221.675781 163.371094 L 221.675781 194.613281 L 216.195312 194.613281 L 216.195312 163.371094 L 221.675781 163.371094 " fill-opacity="1" fill-rule="nonzero"/><path fill="#ffffff" d="M 226.625 185.238281 L 226.625 172.742188 C 226.625 166.273438 230.144531 162.746094 235.980469 162.746094 C 241.949219 162.746094 245.335938 166.273438 245.605469 172.652344 L 240.125 172.652344 C 239.945312 169.441406 238.609375 168.058594 235.9375 168.058594 C 233.664062 168.058594 232.28125 169.53125 232.28125 172.742188 L 232.28125 185.238281 C 232.28125 188.363281 233.664062 189.835938 235.980469 189.835938 C 238.699219 189.835938 240.035156 188.453125 240.257812 185.328125 L 245.738281 185.328125 C 245.515625 191.664062 241.996094 195.148438 235.980469 195.148438 C 230.1875 195.148438 226.625 191.664062 226.625 185.238281 " fill-opacity="1" fill-rule="nonzero"/><path fill="#ffffff" d="M 257.015625 181.890625 L 255.097656 184.882812 L 255.097656 194.613281 L 249.707031 194.613281 L 249.707031 163.371094 L 255.097656 163.371094 L 255.097656 176.179688 L 256.921875 172.519531 L 262.136719 163.371094 L 268.464844 163.371094 L 260.085938 176.984375 L 269.800781 194.613281 L 263.5625 194.613281 L 257.015625 181.890625 " fill-opacity="1" fill-rule="nonzero"/><path fill="#ffffff" d="M 184.019531 209.308594 L 177.738281 209.308594 L 177.738281 235.328125 L 172.125 235.328125 L 172.125 209.308594 L 165.84375 209.308594 L 165.84375 204.085938 L 184.019531 204.085938 L 184.019531 209.308594 " fill-opacity="1" fill-rule="nonzero"/><path fill="#ffffff" d="M 192.800781 204.085938 L 192.800781 235.328125 L 187.320312 235.328125 L 187.320312 204.085938 L 192.800781 204.085938 " fill-opacity="1" fill-rule="nonzero"/><path fill="#ffffff" d="M 211.648438 214.484375 C 211.648438 211.046875 210.179688 209.308594 207.238281 209.308594 L 204.117188 209.308594 L 204.117188 219.664062 L 207.238281 219.664062 C 210.179688 219.664062 211.648438 217.921875 211.648438 214.484375 Z M 217.261719 214.484375 C 217.261719 221.046875 213.566406 224.839844 207.28125 224.839844 L 204.117188 224.839844 L 204.117188 235.328125 L 198.640625 235.328125 L 198.640625 204.085938 L 207.28125 204.085938 C 213.566406 204.085938 217.261719 207.925781 217.261719 214.484375 " fill-opacity="1" fill-rule="nonzero"/><path fill="#ffffff" d="M 219.582031 226.492188 L 225.195312 226.492188 C 225.242188 229.300781 226.710938 230.597656 229.070312 230.597656 C 231.566406 230.597656 232.769531 229.125 232.769531 227.117188 C 232.769531 221.449219 220.207031 221 220.207031 211.585938 C 220.207031 206.945312 223.503906 203.460938 229.027344 203.460938 C 234.597656 203.460938 237.984375 206.898438 238.027344 212.476562 L 232.414062 212.476562 C 232.367188 209.976562 231.121094 208.773438 229.027344 208.773438 C 226.976562 208.773438 225.777344 209.933594 225.777344 211.71875 C 225.777344 217.164062 238.472656 217.34375 238.472656 227.160156 C 238.472656 232.070312 235.042969 235.953125 229.027344 235.953125 C 223.28125 235.953125 219.625 232.515625 219.582031 226.492188 " fill-opacity="1" fill-rule="nonzero"/><path fill="#ffffff" d="M 76.140625 186.878906 C 75.710938 186.878906 75.277344 186.738281 74.910156 186.457031 C 74.039062 185.773438 73.886719 184.515625 74.5625 183.644531 C 77.621094 179.714844 82.222656 177.464844 87.1875 177.464844 C 88.292969 177.464844 89.1875 178.359375 89.1875 179.464844 C 89.1875 180.570312 88.292969 181.46875 87.1875 181.46875 C 83.460938 181.46875 80.011719 183.160156 77.71875 186.105469 C 77.324219 186.613281 76.734375 186.878906 76.140625 186.878906 " fill-opacity="1" fill-rule="nonzero"/><path fill="#ffffff" d="M 80.9375 218.402344 L 91.714844 218.402344 L 91.714844 213.886719 C 91.714844 211.101562 93.125 208.566406 95.488281 207.101562 C 100.675781 203.890625 103.769531 198.328125 103.769531 192.234375 C 103.769531 187.550781 101.945312 183.15625 98.636719 179.851562 C 95.328125 176.550781 90.976562 174.71875 86.257812 174.757812 C 77.03125 174.792969 69.242188 182.328125 68.894531 191.550781 C 68.65625 197.851562 71.835938 203.816406 77.195312 207.121094 C 79.503906 208.546875 80.9375 211.136719 80.9375 213.886719 Z M 93.714844 222.40625 L 78.9375 222.40625 C 77.835938 222.40625 76.941406 221.507812 76.941406 220.402344 L 76.941406 213.886719 C 76.941406 212.519531 76.234375 211.230469 75.097656 210.53125 C 68.515625 206.472656 64.605469 199.140625 64.898438 191.402344 C 65.328125 180.0625 74.898438 170.796875 86.238281 170.753906 C 91.945312 170.722656 97.386719 172.953125 101.457031 177.015625 C 105.527344 181.074219 107.769531 186.480469 107.769531 192.234375 C 107.769531 199.726562 103.964844 206.558594 97.589844 210.507812 C 96.414062 211.234375 95.710938 212.5 95.710938 213.886719 L 95.710938 220.402344 C 95.710938 221.507812 94.816406 222.40625 93.714844 222.40625 " fill-opacity="1" fill-rule="nonzero"/><path fill="#ffffff" d="M 89.132812 236.308594 L 83.515625 236.308594 C 79.890625 236.308594 76.941406 233.351562 76.941406 229.71875 L 76.941406 227.074219 C 76.941406 225.96875 77.835938 225.074219 78.9375 225.074219 C 80.042969 225.074219 80.9375 225.96875 80.9375 227.074219 L 80.9375 229.71875 C 80.9375 231.144531 82.09375 232.304688 83.515625 232.304688 L 89.132812 232.304688 C 90.558594 232.304688 91.714844 231.144531 91.714844 229.71875 L 91.714844 227.074219 C 91.714844 225.96875 92.609375 225.074219 93.714844 225.074219 C 94.816406 225.074219 95.710938 225.96875 95.710938 227.074219 L 95.710938 229.71875 C 95.710938 233.351562 92.761719 236.308594 89.132812 236.308594 " fill-opacity="1" fill-rule="nonzero"/><path fill="#ffffff" d="M 80.9375 229.078125 L 80.9375 229.71875 C 80.9375 231.144531 82.09375 232.304688 83.515625 232.304688 L 89.132812 232.304688 C 90.558594 232.304688 91.714844 231.144531 91.714844 229.71875 L 91.714844 229.078125 Z M 89.132812 236.308594 L 83.515625 236.308594 C 79.890625 236.308594 76.941406 233.351562 76.941406 229.71875 L 76.941406 227.074219 C 76.941406 225.96875 77.835938 225.074219 78.9375 225.074219 L 93.714844 225.074219 C 94.816406 225.074219 95.710938 225.96875 95.710938 227.074219 L 95.710938 229.71875 C 95.710938 233.351562 92.761719 236.308594 89.132812 236.308594 " fill-opacity="1" fill-rule="nonzero"/><path fill="#ffffff" d="M 86.324219 169.160156 C 85.222656 169.160156 84.328125 168.265625 84.328125 167.160156 L 84.328125 161.609375 C 84.328125 160.5 85.222656 159.605469 86.324219 159.605469 C 87.429688 159.605469 88.324219 160.5 88.324219 161.609375 L 88.324219 167.160156 C 88.324219 168.265625 87.429688 169.160156 86.324219 169.160156 " fill-opacity="1" fill-rule="nonzero"/><path fill="#ffffff" d="M 73.898438 172.5 C 73.207031 172.5 72.535156 172.140625 72.164062 171.496094 L 69.394531 166.6875 C 68.839844 165.730469 69.167969 164.507812 70.125 163.953125 C 71.082031 163.398438 72.304688 163.730469 72.855469 164.6875 L 75.625 169.496094 C 76.179688 170.453125 75.851562 171.675781 74.894531 172.230469 C 74.578125 172.410156 74.238281 172.5 73.898438 172.5 " fill-opacity="1" fill-rule="nonzero"/><path fill="#ffffff" d="M 64.796875 181.613281 C 64.457031 181.613281 64.113281 181.527344 63.796875 181.34375 L 58.996094 178.570312 C 58.042969 178.015625 57.710938 176.792969 58.265625 175.832031 C 58.816406 174.878906 60.039062 174.550781 60.996094 175.101562 L 65.796875 177.875 C 66.75 178.429688 67.082031 179.652344 66.527344 180.613281 C 66.15625 181.253906 65.484375 181.613281 64.796875 181.613281 " fill-opacity="1" fill-rule="nonzero"/><path fill="#ffffff" d="M 98.753906 172.5 C 98.414062 172.5 98.070312 172.410156 97.757812 172.230469 C 96.800781 171.675781 96.472656 170.453125 97.023438 169.496094 L 99.796875 164.6875 C 100.347656 163.730469 101.570312 163.398438 102.527344 163.953125 C 103.480469 164.507812 103.808594 165.730469 103.257812 166.6875 L 100.488281 171.496094 C 100.117188 172.140625 99.445312 172.5 98.753906 172.5 " fill-opacity="1" fill-rule="nonzero"/><path fill="#ffffff" d="M 107.859375 181.613281 C 107.167969 181.613281 106.496094 181.253906 106.125 180.613281 C 105.570312 179.652344 105.898438 178.429688 106.855469 177.875 L 111.65625 175.101562 C 112.613281 174.550781 113.835938 174.878906 114.386719 175.832031 C 114.9375 176.792969 114.609375 178.015625 113.65625 178.570312 L 108.855469 181.34375 C 108.539062 181.527344 108.195312 181.613281 107.859375 181.613281 " fill-opacity="1" fill-rule="nonzero"/></svg>