<svg xmlns="http://www.w3.org/2000/svg" xmlns:xlink="http://www.w3.org/1999/xlink" width="500" zoomAndPan="magnify" viewBox="0 0 375 374.999991" height="500" preserveAspectRatio="xMidYMid meet" version="1.0"><defs><g/></defs><rect x="-37.5" width="450" fill="#ffffff" y="-37.499999" height="449.999989" fill-opacity="1"/><rect x="-37.5" width="450" fill="#ffffff" y="-37.499999" height="449.999989" fill-opacity="1"/><rect x="-37.5" width="450" fill="#ff0000" y="-37.499999" height="449.999989" fill-opacity="1"/><g fill="#ffffff" fill-opacity="1"><g transform="translate(5.390629, 186.925003)"><g><path d="M 67.28125 -19.03125 C 67.4375 -18.09375 67.570312 -16.832031 67.6875 -15.25 C 67.800781 -13.664062 67.859375 -12.101562 67.859375 -10.5625 C 67.859375 -6.84375 67.238281 -4.148438 66 -2.484375 C 64.757812 -0.828125 62.554688 0 59.390625 0 L 21.6875 0 C 17.820312 0 14.921875 -0.363281 12.984375 -1.09375 C 11.054688 -1.832031 9.722656 -3.09375 8.984375 -4.875 C 8.253906 -6.65625 7.890625 -9.285156 7.890625 -12.765625 L 7.890625 -83.984375 C 8.585938 -84.140625 9.765625 -84.296875 11.421875 -84.453125 C 13.085938 -84.609375 14.617188 -84.6875 16.015625 -84.6875 C 19.722656 -84.6875 22.484375 -84.429688 24.296875 -83.921875 C 26.117188 -83.421875 27.375 -82.53125 28.0625 -81.25 C 28.757812 -79.976562 29.109375 -78.03125 29.109375 -75.40625 L 29.109375 -19.03125 Z M 67.28125 -19.03125 "/></g></g></g><g fill="#ffffff" fill-opacity="1"><g transform="translate(74.753917, 186.925003)"><g><path d="M 7.890625 -83.984375 C 8.585938 -84.140625 9.765625 -84.296875 11.421875 -84.453125 C 13.085938 -84.609375 14.617188 -84.6875 16.015625 -84.6875 C 19.722656 -84.6875 22.484375 -84.429688 24.296875 -83.921875 C 26.117188 -83.421875 27.359375 -82.53125 28.015625 -81.25 C 28.671875 -79.976562 29 -78.03125 29 -75.40625 L 29 0.34375 C 28.300781 0.5 27.0625 0.65625 25.28125 0.8125 C 23.507812 0.96875 21.890625 1.046875 20.421875 1.046875 C 16.785156 1.046875 14.097656 0.789062 12.359375 0.28125 C 10.617188 -0.21875 9.4375 -1.082031 8.8125 -2.3125 C 8.195312 -3.550781 7.890625 -5.523438 7.890625 -8.234375 Z M 7.890625 -83.984375 "/></g></g></g><g fill="#ffffff" fill-opacity="1"><g transform="translate(111.639413, 186.925003)"><g><path d="M 73.78125 -48.25 C 77.019531 -48.25 79.609375 -47.898438 81.546875 -47.203125 C 83.484375 -46.515625 84.929688 -45.238281 85.890625 -43.375 C 86.859375 -41.519531 87.34375 -38.894531 87.34375 -35.5 C 87.34375 -27.914062 85.71875 -21.320312 82.46875 -15.71875 C 79.226562 -10.113281 74.609375 -5.78125 68.609375 -2.71875 C 62.617188 0.332031 55.640625 1.859375 47.671875 1.859375 C 38.546875 1.859375 30.753906 0.195312 24.296875 -3.125 C 17.835938 -6.457031 12.90625 -11.367188 9.5 -17.859375 C 6.101562 -24.359375 4.40625 -32.25 4.40625 -41.53125 C 4.40625 -50.570312 6.257812 -58.398438 9.96875 -65.015625 C 13.6875 -71.628906 18.984375 -76.675781 25.859375 -80.15625 C 32.742188 -83.632812 40.867188 -85.375 50.234375 -85.375 C 54.867188 -85.375 59.140625 -84.890625 63.046875 -83.921875 C 66.953125 -82.953125 70.335938 -81.617188 73.203125 -79.921875 C 75.441406 -78.765625 77.160156 -77.332031 78.359375 -75.625 C 79.554688 -73.925781 80.15625 -72.035156 80.15625 -69.953125 C 80.15625 -67.316406 79.570312 -65.070312 78.40625 -63.21875 C 77.25 -61.363281 75.820312 -59.894531 74.125 -58.8125 C 71.1875 -61.519531 67.742188 -63.722656 63.796875 -65.421875 C 59.859375 -67.117188 55.53125 -67.96875 50.8125 -67.96875 C 45.320312 -67.96875 40.660156 -66.847656 36.828125 -64.609375 C 33.003906 -62.367188 30.125 -59.238281 28.1875 -55.21875 C 26.25 -51.195312 25.28125 -46.632812 25.28125 -41.53125 C 25.28125 -36.5 26.148438 -32.03125 27.890625 -28.125 C 29.640625 -24.21875 32.210938 -21.144531 35.609375 -18.90625 C 39.015625 -16.664062 43.15625 -15.546875 48.03125 -15.546875 C 51.425781 -15.546875 54.515625 -16.179688 57.296875 -17.453125 C 60.085938 -18.734375 62.410156 -20.628906 64.265625 -23.140625 C 66.117188 -25.648438 67.238281 -28.644531 67.625 -32.125 L 46.40625 -32.125 C 45.707031 -34.914062 45.359375 -37.546875 45.359375 -40.015625 C 45.359375 -45.503906 48.140625 -48.25 53.703125 -48.25 Z M 73.78125 -48.25 "/></g></g></g><g fill="#ffffff" fill-opacity="1"><g transform="translate(202.345267, 186.925003)"><g><path d="M 71.6875 -84.6875 C 75.320312 -84.6875 78.007812 -84.429688 79.75 -83.921875 C 81.488281 -83.421875 82.664062 -82.550781 83.28125 -81.3125 C 83.90625 -80.070312 84.21875 -78.101562 84.21875 -75.40625 L 84.21875 0.34375 C 83.519531 0.5 82.335938 0.65625 80.671875 0.8125 C 79.015625 0.96875 77.488281 1.046875 76.09375 1.046875 C 72.382812 1.046875 69.640625 0.789062 67.859375 0.28125 C 66.078125 -0.21875 64.835938 -1.101562 64.140625 -2.375 C 63.453125 -3.65625 63.109375 -5.609375 63.109375 -8.234375 L 63.109375 -33.640625 L 29 -33.640625 L 29 0.34375 C 28.300781 0.5 27.0625 0.65625 25.28125 0.8125 C 23.507812 0.96875 21.890625 1.046875 20.421875 1.046875 C 16.785156 1.046875 14.097656 0.789062 12.359375 0.28125 C 10.617188 -0.21875 9.4375 -1.082031 8.8125 -2.3125 C 8.195312 -3.550781 7.890625 -5.523438 7.890625 -8.234375 L 7.890625 -83.984375 C 8.585938 -84.140625 9.765625 -84.296875 11.421875 -84.453125 C 13.085938 -84.609375 14.617188 -84.6875 16.015625 -84.6875 C 19.722656 -84.6875 22.484375 -84.429688 24.296875 -83.921875 C 26.117188 -83.421875 27.359375 -82.53125 28.015625 -81.25 C 28.671875 -79.976562 29 -78.03125 29 -75.40625 L 29 -51.734375 L 63.109375 -51.734375 L 63.109375 -83.984375 C 63.796875 -84.140625 65.046875 -84.296875 66.859375 -84.453125 C 68.679688 -84.609375 70.289062 -84.6875 71.6875 -84.6875 Z M 71.6875 -84.6875 "/></g></g></g><g fill="#ffffff" fill-opacity="1"><g transform="translate(294.443009, 186.925003)"><g><path d="M 72.96875 -83.515625 C 73.125 -82.585938 73.257812 -81.425781 73.375 -80.03125 C 73.488281 -78.644531 73.546875 -77.375 73.546875 -76.21875 C 73.546875 -73.195312 73.289062 -70.929688 72.78125 -69.421875 C 72.28125 -67.910156 71.410156 -66.863281 70.171875 -66.28125 C 68.941406 -65.707031 67.085938 -65.421875 64.609375 -65.421875 L 48.25 -65.421875 L 48.25 0.34375 C 47.5625 0.5 46.304688 0.65625 44.484375 0.8125 C 42.671875 0.96875 41.066406 1.046875 39.671875 1.046875 C 35.960938 1.046875 33.238281 0.789062 31.5 0.28125 C 29.757812 -0.21875 28.578125 -1.082031 27.953125 -2.3125 C 27.335938 -3.550781 27.03125 -5.523438 27.03125 -8.234375 L 27.03125 -65.421875 L 2.203125 -65.421875 C 2.046875 -66.273438 1.910156 -67.394531 1.796875 -68.78125 C 1.679688 -70.175781 1.625 -71.492188 1.625 -72.734375 C 1.625 -75.742188 1.875 -78.003906 2.375 -79.515625 C 2.875 -81.023438 3.742188 -82.066406 4.984375 -82.640625 C 6.222656 -83.222656 8.039062 -83.515625 10.4375 -83.515625 Z M 72.96875 -83.515625 "/></g></g></g><g fill="#ffffff" fill-opacity="1"><g transform="translate(51.319868, 300.57496)"><g><path d="M 48.140625 -85.03125 C 52.390625 -85.03125 56.3125 -84.640625 59.90625 -83.859375 C 63.507812 -83.085938 66.585938 -81.96875 69.140625 -80.5 C 71.148438 -79.34375 72.65625 -77.953125 73.65625 -76.328125 C 74.664062 -74.703125 75.171875 -72.960938 75.171875 -71.109375 C 75.171875 -69.097656 74.585938 -67.101562 73.421875 -65.125 C 72.265625 -63.15625 70.644531 -61.4375 68.5625 -59.96875 C 66.625 -61.75 63.953125 -63.332031 60.546875 -64.71875 C 57.148438 -66.113281 53.554688 -66.8125 49.765625 -66.8125 C 45.273438 -66.8125 41.269531 -65.765625 37.75 -63.671875 C 34.238281 -61.585938 31.492188 -58.648438 29.515625 -54.859375 C 27.546875 -51.078125 26.5625 -46.710938 26.5625 -41.765625 C 26.5625 -36.816406 27.488281 -32.445312 29.34375 -28.65625 C 31.195312 -24.863281 33.882812 -21.921875 37.40625 -19.828125 C 40.925781 -17.742188 45.082031 -16.703125 49.875 -16.703125 C 54.050781 -16.703125 57.9375 -17.53125 61.53125 -19.1875 C 65.132812 -20.851562 68.132812 -22.769531 70.53125 -24.9375 C 72.457031 -23.15625 73.941406 -21.296875 74.984375 -19.359375 C 76.035156 -17.429688 76.5625 -15.503906 76.5625 -13.578125 C 76.5625 -9.785156 74.585938 -6.648438 70.640625 -4.171875 C 68.171875 -2.546875 64.925781 -1.191406 60.90625 -0.109375 C 56.882812 0.972656 52.320312 1.515625 47.21875 1.515625 C 37.550781 1.515625 29.523438 -0.28125 23.140625 -3.875 C 16.765625 -7.476562 12.046875 -12.488281 8.984375 -18.90625 C 5.929688 -25.320312 4.40625 -32.820312 4.40625 -41.40625 C 4.40625 -50.226562 6.203125 -57.925781 9.796875 -64.5 C 13.398438 -71.070312 18.488281 -76.132812 25.0625 -79.6875 C 31.632812 -83.25 39.328125 -85.03125 48.140625 -85.03125 Z M 48.140625 -85.03125 "/></g></g></g><g fill="#ffffff" fill-opacity="1"><g transform="translate(131.354428, 300.57496)"><g><path d="M 7.890625 -83.984375 C 8.585938 -84.140625 9.765625 -84.296875 11.421875 -84.453125 C 13.085938 -84.609375 14.617188 -84.6875 16.015625 -84.6875 C 19.722656 -84.6875 22.484375 -84.429688 24.296875 -83.921875 C 26.117188 -83.421875 27.359375 -82.53125 28.015625 -81.25 C 28.671875 -79.976562 29 -78.03125 29 -75.40625 L 29 0.34375 C 28.300781 0.5 27.0625 0.65625 25.28125 0.8125 C 23.507812 0.96875 21.890625 1.046875 20.421875 1.046875 C 16.785156 1.046875 14.097656 0.789062 12.359375 0.28125 C 10.617188 -0.21875 9.4375 -1.082031 8.8125 -2.3125 C 8.195312 -3.550781 7.890625 -5.523438 7.890625 -8.234375 Z M 7.890625 -83.984375 "/></g></g></g><g fill="#ffffff" fill-opacity="1"><g transform="translate(168.239923, 300.57496)"><g><path d="M 72.96875 -83.515625 C 73.125 -82.585938 73.257812 -81.425781 73.375 -80.03125 C 73.488281 -78.644531 73.546875 -77.375 73.546875 -76.21875 C 73.546875 -73.195312 73.289062 -70.929688 72.78125 -69.421875 C 72.28125 -67.910156 71.410156 -66.863281 70.171875 -66.28125 C 68.941406 -65.707031 67.085938 -65.421875 64.609375 -65.421875 L 48.25 -65.421875 L 48.25 0.34375 C 47.5625 0.5 46.304688 0.65625 44.484375 0.8125 C 42.671875 0.96875 41.066406 1.046875 39.671875 1.046875 C 35.960938 1.046875 33.238281 0.789062 31.5 0.28125 C 29.757812 -0.21875 28.578125 -1.082031 27.953125 -2.3125 C 27.335938 -3.550781 27.03125 -5.523438 27.03125 -8.234375 L 27.03125 -65.421875 L 2.203125 -65.421875 C 2.046875 -66.273438 1.910156 -67.394531 1.796875 -68.78125 C 1.679688 -70.175781 1.625 -71.492188 1.625 -72.734375 C 1.625 -75.742188 1.875 -78.003906 2.375 -79.515625 C 2.875 -81.023438 3.742188 -82.066406 4.984375 -82.640625 C 6.222656 -83.222656 8.039062 -83.515625 10.4375 -83.515625 Z M 72.96875 -83.515625 "/></g></g></g><g fill="#ffffff" fill-opacity="1"><g transform="translate(243.402802, 300.57496)"><g><path d="M 79.453125 -75.625 C 79.453125 -73.539062 78.546875 -70.71875 76.734375 -67.15625 C 74.921875 -63.601562 72.390625 -59.625 69.140625 -55.21875 C 63.796875 -47.945312 57.6875 -40.910156 50.8125 -34.109375 L 50.8125 0.34375 C 50.03125 0.5 48.769531 0.65625 47.03125 0.8125 C 45.289062 0.96875 43.726562 1.046875 42.34375 1.046875 C 38.625 1.046875 35.894531 0.789062 34.15625 0.28125 C 32.414062 -0.21875 31.21875 -1.101562 30.5625 -2.375 C 29.90625 -3.65625 29.578125 -5.609375 29.578125 -8.234375 L 29.578125 -33.0625 L -1.390625 -82.359375 C -0.304688 -82.972656 1.429688 -83.492188 3.828125 -83.921875 C 6.222656 -84.347656 8.582031 -84.5625 10.90625 -84.5625 C 14 -84.5625 16.492188 -84.328125 18.390625 -83.859375 C 20.285156 -83.398438 21.945312 -82.515625 23.375 -81.203125 C 24.800781 -79.890625 26.171875 -77.878906 27.484375 -75.171875 L 41.765625 -49.640625 C 45.546875 -54.671875 49.140625 -60.28125 52.546875 -66.46875 C 55.953125 -72.65625 58.738281 -78.6875 60.90625 -84.5625 C 65.070312 -84.488281 68.488281 -84.21875 71.15625 -83.75 C 73.832031 -83.289062 75.882812 -82.398438 77.3125 -81.078125 C 78.738281 -79.765625 79.453125 -77.945312 79.453125 -75.625 Z M 79.453125 -75.625 "/></g></g></g></svg>