<svg xmlns="http://www.w3.org/2000/svg" xmlns:xlink="http://www.w3.org/1999/xlink" width="500" zoomAndPan="magnify" viewBox="0 0 375 374.999991" height="500" preserveAspectRatio="xMidYMid meet" version="1.0"><defs><clipPath id="904477dba4"><path d="M 84.691406 135 L 290 135 L 290 299.402344 L 84.691406 299.402344 Z M 84.691406 135 " clip-rule="nonzero"/></clipPath><clipPath id="ed5f863229"><path d="M 134 75.902344 L 241 75.902344 L 241 213 L 134 213 Z M 134 75.902344 " clip-rule="nonzero"/></clipPath></defs><path fill="#cfd8dc" d="M 192.929688 212.242188 C 194.273438 212.242188 195.363281 211.148438 195.363281 209.804688 L 195.363281 156.660156 L 192.929688 156.660156 C 191.585938 156.660156 190.496094 155.566406 190.496094 154.21875 L 190.496094 151.78125 L 184.382812 151.78125 L 184.382812 154.21875 C 184.382812 155.566406 183.292969 156.660156 181.949219 156.660156 L 179.511719 156.660156 L 179.511719 209.804688 C 179.511719 211.136719 180.582031 212.222656 181.910156 212.242188 L 181.984375 212.242188 C 183.3125 212.222656 184.382812 211.136719 184.382812 209.804688 L 184.382812 156.660156 L 190.496094 156.660156 L 190.496094 209.804688 C 190.496094 211.152344 191.585938 212.242188 192.929688 212.242188 Z M 170.585938 220.191406 L 204.285156 220.191406 C 206.472656 220.191406 208.253906 218.40625 208.253906 216.21875 C 208.253906 214.027344 206.472656 212.242188 204.285156 212.242188 L 181.984375 212.242188 C 181.972656 212.242188 181.960938 212.242188 181.949219 212.242188 C 181.933594 212.242188 181.921875 212.242188 181.910156 212.242188 L 170.855469 212.242188 C 170.839844 212.242188 170.824219 212.242188 170.808594 212.242188 C 170.792969 212.242188 170.777344 212.242188 170.761719 212.242188 L 170.585938 212.242188 C 168.398438 212.242188 166.617188 214.027344 166.617188 216.21875 C 166.621094 218.40625 168.398438 220.191406 170.585938 220.191406 Z M 170.585938 220.191406 " fill-opacity="1" fill-rule="evenodd"/><path fill="#cfd8dc" d="M 204.285156 225.070312 L 204.257812 225.070312 C 204.269531 225.070312 204.277344 225.070312 204.285156 225.070312 Z M 176.035156 233.019531 L 198.84375 233.019531 C 202.167969 233.019531 205.070312 234.867188 206.578125 237.59375 C 210.34375 236.582031 213.121094 233.128906 213.121094 229.042969 C 213.121094 226.523438 212.066406 224.246094 210.371094 222.632812 C 208.789062 221.121094 206.644531 220.191406 204.285156 220.191406 C 202.941406 220.191406 201.851562 221.285156 201.851562 222.632812 C 201.851562 223.96875 202.925781 225.054688 204.257812 225.070312 L 170.613281 225.070312 C 170.601562 225.070312 170.59375 225.070312 170.585938 225.070312 C 168.398438 225.070312 166.617188 226.855469 166.617188 229.042969 C 166.621094 231.234375 168.398438 233.019531 170.585938 233.019531 Z M 176.035156 233.019531 " fill-opacity="1" fill-rule="evenodd"/><g clip-path="url(#904477dba4)"><path fill="#000000" d="M 99.148438 299.308594 C 98.390625 299.308594 97.652344 298.953125 97.179688 298.308594 C 96.511719 297.382812 96.566406 296.117188 97.316406 295.257812 L 122.046875 267.054688 L 112.65625 267.054688 C 97.398438 267.054688 84.984375 254.617188 84.984375 239.332031 L 84.984375 163.484375 C 84.984375 148.199219 97.398438 135.761719 112.65625 135.761719 L 137.089844 135.761719 C 138.433594 135.761719 139.523438 136.855469 139.523438 138.203125 C 139.523438 139.546875 138.433594 140.640625 137.085938 140.640625 L 112.65625 140.640625 C 100.082031 140.640625 89.855469 150.886719 89.855469 163.484375 L 89.855469 239.332031 C 89.855469 251.929688 100.082031 262.175781 112.65625 262.175781 L 127.425781 262.175781 C 128.382812 262.175781 129.25 262.738281 129.648438 263.609375 C 130.039062 264.480469 129.886719 265.503906 129.257812 266.226562 L 108.226562 290.207031 L 171.453125 262.382812 C 171.761719 262.246094 172.097656 262.175781 172.4375 262.175781 L 262.222656 262.175781 C 274.792969 262.175781 285.023438 251.929688 285.023438 239.332031 L 285.023438 163.484375 C 285.023438 150.886719 274.792969 140.640625 262.222656 140.640625 L 237.785156 140.640625 C 236.441406 140.640625 235.347656 139.546875 235.347656 138.203125 C 235.347656 136.855469 236.4375 135.761719 237.785156 135.761719 L 262.222656 135.761719 C 277.480469 135.761719 289.890625 148.199219 289.890625 163.484375 L 289.890625 239.332031 C 289.890625 254.617188 277.480469 267.054688 262.222656 267.054688 L 172.945312 267.054688 L 100.125 299.101562 C 99.804688 299.238281 99.476562 299.308594 99.148438 299.308594 Z M 99.148438 299.308594 " fill-opacity="1" fill-rule="evenodd"/></g><g clip-path="url(#ed5f863229)"><path fill="#000000" d="M 204.066406 212.242188 C 202.722656 212.242188 201.632812 211.152344 201.632812 209.804688 C 201.632812 187.921875 210.640625 177.835938 219.351562 168.089844 C 227.871094 158.554688 235.921875 149.550781 235.921875 129.304688 C 235.921875 102.515625 214.171875 80.722656 187.4375 80.722656 C 160.707031 80.722656 138.953125 102.515625 138.953125 129.304688 C 138.953125 149.609375 147 158.574219 155.515625 168.070312 C 164.230469 177.78125 173.242188 187.824219 173.242188 209.804688 C 173.242188 211.148438 172.152344 212.242188 170.808594 212.242188 C 169.464844 212.242188 168.375 211.152344 168.375 209.804688 C 168.375 189.699219 160.371094 180.773438 151.894531 171.332031 C 143.140625 161.574219 134.085938 151.480469 134.085938 129.304688 C 134.085938 99.828125 158.019531 75.84375 187.4375 75.84375 C 216.855469 75.84375 240.792969 99.828125 240.792969 129.304688 C 240.792969 151.414062 231.738281 161.550781 222.976562 171.347656 C 214.507812 180.824219 206.503906 189.785156 206.503906 209.804688 C 206.503906 211.148438 205.410156 212.242188 204.066406 212.242188 Z M 204.066406 212.242188 " fill-opacity="1" fill-rule="evenodd"/></g><path fill="#000000" d="M 215.882812 104.582031 C 215.238281 104.582031 214.597656 104.328125 214.121094 103.828125 C 207.097656 96.441406 197.617188 92.375 187.433594 92.375 C 186.089844 92.375 185 91.285156 185 89.9375 C 185 88.589844 186.089844 87.496094 187.433594 87.496094 C 198.964844 87.496094 209.691406 92.101562 217.640625 100.460938 C 218.570312 101.4375 218.535156 102.984375 217.558594 103.90625 C 217.089844 104.359375 216.484375 104.582031 215.882812 104.582031 Z M 226.726562 131.742188 C 225.382812 131.742188 224.289062 130.648438 224.289062 129.304688 C 224.292969 122.875 222.617188 116.546875 219.457031 111.007812 C 218.792969 109.839844 219.199219 108.34375 220.363281 107.679688 C 221.53125 107.007812 223.019531 107.414062 223.6875 108.582031 C 227.269531 114.863281 229.160156 122.023438 229.160156 129.304688 C 229.160156 130.648438 228.070312 131.742188 226.726562 131.742188 Z M 226.726562 131.742188 " fill-opacity="1" fill-rule="evenodd"/><path fill="#000000" d="M 170.585938 212.242188 C 168.398438 212.242188 166.617188 214.027344 166.617188 216.21875 C 166.621094 218.40625 168.398438 220.191406 170.585938 220.191406 L 204.285156 220.191406 C 206.472656 220.191406 208.253906 218.40625 208.253906 216.21875 C 208.253906 214.027344 206.472656 212.242188 204.285156 212.242188 Z M 204.285156 225.070312 L 170.585938 225.070312 C 165.714844 225.070312 161.75 221.101562 161.75 216.21875 C 161.75 211.339844 165.714844 207.363281 170.585938 207.363281 L 204.285156 207.363281 C 209.160156 207.363281 213.121094 211.339844 213.121094 216.21875 C 213.121094 221.101562 209.160156 225.070312 204.285156 225.070312 Z M 204.285156 225.070312 " fill-opacity="1" fill-rule="evenodd"/><path fill="#000000" d="M 204.285156 237.898438 L 170.585938 237.898438 C 165.714844 237.898438 161.75 233.925781 161.75 229.046875 C 161.75 224.160156 165.714844 220.191406 170.585938 220.191406 C 171.929688 220.191406 173.019531 221.285156 173.019531 222.632812 C 173.019531 223.980469 171.929688 225.070312 170.585938 225.070312 C 168.398438 225.070312 166.617188 226.855469 166.617188 229.046875 C 166.621094 231.234375 168.398438 233.019531 170.585938 233.019531 L 204.285156 233.019531 C 206.472656 233.019531 208.253906 231.234375 208.253906 229.046875 C 208.253906 226.855469 206.472656 225.070312 204.285156 225.070312 C 202.941406 225.070312 201.851562 223.980469 201.851562 222.632812 C 201.851562 221.285156 202.941406 220.191406 204.285156 220.191406 C 209.160156 220.191406 213.121094 224.160156 213.121094 229.046875 C 213.121094 233.925781 209.160156 237.898438 204.285156 237.898438 Z M 204.285156 237.898438 " fill-opacity="1" fill-rule="evenodd"/><path fill="#000000" d="M 198.84375 250.71875 L 176.035156 250.71875 C 171.160156 250.71875 167.195312 246.75 167.195312 241.871094 C 167.199219 236.988281 171.160156 233.019531 176.035156 233.019531 C 177.378906 233.019531 178.46875 234.113281 178.46875 235.457031 C 178.46875 236.804688 177.378906 237.898438 176.035156 237.898438 C 173.847656 237.898438 172.066406 239.675781 172.066406 241.871094 C 172.066406 244.0625 173.847656 245.839844 176.035156 245.839844 L 198.84375 245.839844 C 201.03125 245.839844 202.808594 244.0625 202.808594 241.871094 C 202.808594 239.675781 201.03125 237.898438 198.84375 237.898438 C 197.5 237.898438 196.410156 236.804688 196.410156 235.457031 C 196.410156 234.109375 197.5 233.019531 198.84375 233.019531 C 203.714844 233.019531 207.679688 236.988281 207.679688 241.871094 C 207.679688 246.75 203.714844 250.71875 198.84375 250.71875 Z M 198.84375 250.71875 " fill-opacity="1" fill-rule="evenodd"/><path fill="#000000" d="M 192.929688 212.242188 C 191.585938 212.242188 190.496094 211.152344 190.496094 209.804688 L 190.496094 156.660156 L 184.382812 156.660156 L 184.382812 209.804688 C 184.382812 211.148438 183.292969 212.242188 181.949219 212.242188 C 180.605469 212.242188 179.511719 211.152344 179.511719 209.804688 L 179.511719 154.21875 C 179.511719 152.875 180.601562 151.78125 181.949219 151.78125 L 192.929688 151.78125 C 194.273438 151.78125 195.363281 152.875 195.363281 154.21875 L 195.363281 209.804688 C 195.363281 211.148438 194.273438 212.242188 192.929688 212.242188 Z M 192.929688 212.242188 " fill-opacity="1" fill-rule="evenodd"/><path fill="#000000" d="M 175.933594 144.605469 C 173.953125 144.605469 172.351562 146.214844 172.351562 148.191406 C 172.351562 150.167969 173.953125 151.78125 175.933594 151.78125 L 179.511719 151.78125 L 179.511719 148.191406 C 179.511719 146.214844 177.90625 144.605469 175.933594 144.605469 Z M 181.949219 156.660156 L 175.933594 156.660156 C 171.269531 156.660156 167.480469 152.859375 167.480469 148.191406 C 167.480469 143.523438 171.269531 139.726562 175.933594 139.726562 C 180.589844 139.726562 184.382812 143.523438 184.382812 148.191406 L 184.382812 154.21875 C 184.382812 155.566406 183.292969 156.660156 181.949219 156.660156 Z M 181.949219 156.660156 " fill-opacity="1" fill-rule="evenodd"/><path fill="#000000" d="M 195.363281 151.78125 L 198.945312 151.78125 C 200.917969 151.78125 202.527344 150.171875 202.527344 148.191406 C 202.527344 146.214844 200.917969 144.605469 198.945312 144.605469 C 196.972656 144.605469 195.363281 146.214844 195.363281 148.191406 Z M 198.945312 156.660156 L 192.929688 156.660156 C 191.585938 156.660156 190.496094 155.566406 190.496094 154.21875 L 190.496094 148.191406 C 190.496094 143.523438 194.285156 139.726562 198.945312 139.726562 C 203.605469 139.726562 207.394531 143.523438 207.394531 148.191406 C 207.394531 152.859375 203.605469 156.660156 198.945312 156.660156 Z M 198.945312 156.660156 " fill-opacity="1" fill-rule="evenodd"/><path fill="#eceff1" d="M 179.511719 151.78125 L 179.511719 148.191406 C 179.511719 146.214844 177.90625 144.605469 175.933594 144.605469 C 173.953125 144.605469 172.351562 146.214844 172.351562 148.191406 C 172.351562 150.167969 173.953125 151.78125 175.933594 151.78125 Z M 179.511719 151.78125 " fill-opacity="1" fill-rule="evenodd"/><path fill="#eceff1" d="M 195.363281 148.191406 L 195.363281 151.78125 L 198.945312 151.78125 C 200.917969 151.78125 202.527344 150.171875 202.527344 148.191406 C 202.527344 146.214844 200.917969 144.605469 198.945312 144.605469 C 196.972656 144.605469 195.363281 146.214844 195.363281 148.191406 Z M 195.363281 148.191406 " fill-opacity="1" fill-rule="evenodd"/><path fill="#ffe082" d="M 190.496094 148.191406 C 190.496094 143.523438 194.285156 139.726562 198.945312 139.726562 C 203.605469 139.726562 207.394531 143.523438 207.394531 148.191406 C 207.394531 152.859375 203.605469 156.660156 198.945312 156.660156 L 195.363281 156.660156 L 195.363281 207.363281 L 201.671875 207.363281 C 202.316406 187.15625 210.972656 177.46875 219.351562 168.089844 C 226.527344 160.058594 233.371094 152.402344 235.351562 138.089844 C 235.359375 137.941406 235.378906 137.800781 235.410156 137.660156 C 235.742188 135.101562 235.921875 132.328125 235.921875 129.304688 C 235.921875 102.515625 214.171875 80.722656 187.4375 80.722656 C 160.707031 80.722656 138.953125 102.515625 138.953125 129.304688 C 138.953125 132.339844 139.132812 135.121094 139.46875 137.6875 C 139.496094 137.808594 139.511719 137.9375 139.519531 138.066406 C 141.488281 152.4375 148.335938 160.066406 155.515625 168.070312 C 163.902344 177.414062 172.5625 187.066406 173.207031 207.363281 L 179.511719 207.363281 L 179.511719 156.660156 L 175.933594 156.660156 C 171.269531 156.660156 167.480469 152.859375 167.480469 148.191406 C 167.480469 143.523438 171.269531 139.726562 175.933594 139.726562 C 180.589844 139.726562 184.382812 143.523438 184.382812 148.191406 L 184.382812 151.78125 L 190.496094 151.78125 Z M 215.882812 104.582031 C 215.238281 104.582031 214.597656 104.328125 214.121094 103.828125 C 207.097656 96.441406 197.617188 92.375 187.4375 92.375 C 186.089844 92.375 185 91.285156 185 89.9375 C 185 88.589844 186.089844 87.496094 187.4375 87.496094 C 198.964844 87.496094 209.691406 92.101562 217.640625 100.460938 C 218.570312 101.4375 218.535156 102.984375 217.558594 103.90625 C 217.089844 104.359375 216.484375 104.582031 215.882812 104.582031 Z M 226.726562 131.742188 C 225.382812 131.742188 224.292969 130.648438 224.292969 129.304688 C 224.292969 122.875 222.617188 116.546875 219.457031 111.007812 C 218.792969 109.839844 219.199219 108.34375 220.363281 107.679688 C 221.53125 107.007812 223.019531 107.414062 223.6875 108.582031 C 227.269531 114.863281 229.160156 122.023438 229.160156 129.304688 C 229.160156 130.648438 228.070312 131.742188 226.726562 131.742188 Z M 226.726562 131.742188 " fill-opacity="1" fill-rule="evenodd"/><path fill="#ffe082" d="M 190.496094 207.363281 L 190.496094 156.660156 L 184.382812 156.660156 L 184.382812 207.363281 Z M 190.496094 207.363281 " fill-opacity="1" fill-rule="evenodd"/><path fill="#cfd8dc" d="M 198.789062 237.898438 L 176.085938 237.898438 C 176.070312 237.898438 176.050781 237.898438 176.035156 237.898438 C 173.847656 237.898438 172.066406 239.675781 172.066406 241.871094 C 172.066406 244.0625 173.847656 245.84375 176.035156 245.84375 L 198.84375 245.84375 C 201.03125 245.84375 202.808594 244.0625 202.808594 241.871094 C 202.808594 239.675781 201.03125 237.898438 198.84375 237.898438 C 198.824219 237.898438 198.808594 237.898438 198.789062 237.898438 Z M 198.789062 237.898438 " fill-opacity="1" fill-rule="evenodd"/><path fill="#ffab91" d="M 161.75 229.046875 C 161.75 226.523438 162.808594 224.246094 164.5 222.632812 C 162.808594 221.019531 161.75 218.742188 161.75 216.21875 C 161.75 212.117188 164.554688 208.652344 168.34375 207.65625 C 167.792969 189.050781 160.0625 180.433594 151.894531 171.332031 C 144.789062 163.414062 137.488281 155.277344 134.988281 140.640625 L 112.65625 140.640625 C 100.082031 140.640625 89.855469 150.886719 89.855469 163.484375 L 89.855469 239.332031 C 89.855469 251.929688 100.082031 262.175781 112.65625 262.175781 L 127.425781 262.175781 C 128.382812 262.175781 129.25 262.742188 129.648438 263.609375 C 130.039062 264.484375 129.886719 265.503906 129.257812 266.226562 L 108.226562 290.210938 L 171.453125 262.382812 C 171.761719 262.246094 172.097656 262.175781 172.4375 262.175781 L 262.222656 262.175781 C 274.792969 262.175781 285.023438 251.929688 285.023438 239.332031 L 285.023438 163.484375 C 285.023438 150.886719 274.792969 140.640625 262.222656 140.640625 L 239.882812 140.640625 C 237.378906 155.238281 230.082031 163.402344 222.976562 171.347656 C 214.816406 180.480469 207.085938 189.132812 206.535156 207.65625 C 210.324219 208.65625 213.121094 212.117188 213.121094 216.21875 C 213.121094 218.742188 212.066406 221.019531 210.371094 222.632812 C 212.066406 224.246094 213.121094 226.523438 213.121094 229.046875 C 213.121094 233.132812 210.34375 236.582031 206.578125 237.597656 C 207.28125 238.863281 207.679688 240.324219 207.679688 241.871094 C 207.679688 246.75 203.714844 250.722656 198.84375 250.722656 L 176.035156 250.722656 C 171.160156 250.722656 167.195312 246.75 167.195312 241.871094 C 167.195312 240.324219 167.597656 238.863281 168.296875 237.597656 C 164.53125 236.582031 161.75 233.132812 161.75 229.046875 Z M 161.75 229.046875 " fill-opacity="1" fill-rule="evenodd"/></svg>